# xmcd CD database file
#
# Track frame offsets:
#	150
#	13717
#	35042
#	46019
#	56747
#	66554
#	79664
#	105102
#	117719
#	132626
#	146032
#	158218
#	168599
#	182957
#	198830
#	214715
#	228829
#	249365
#
# Disc length: 3530 seconds
#
# Revision: 1
# Processed by: cddbd v1.5.2PL0 Copyright (c) Steve Scherf et al.
# Submitted via: CDex 1.51
#
DISCID=030dc812
DTITLE=Various Artist - Jobim, Vinicius, Baden, Menescal, Lyra and All The Others - CD2
DYEAR=2005
DGENRE=Jazz
TTITLE0=Wanda Sá and Roberto Menescal - Wave
TTITLE1=Baden Powell - Samba do Veloso
TTITLE2=Chico Buarque and Quarteto em Cy - Carta ao Tom 74
TTITLE3=Wanda Sá and Roberto Menescal - Você
TTITLE4=Quarteto em Cy - Samba de Orly
TTITLE5=Miúcha and Antônio Carlos Jobim - Samba do Avião
TTITLE6=Wanda Sá and Roberto Menescal - Vagamente/Triste/Vivo sonhando/Brigas nunca mais
TTITLE7=Miúcha and Antônio Carlos Jobim - Pela luz dos olhos teus
TTITLE8=Maria Bethânia - Anos dourados
TTITLE9=Maria Creuza - Insensatez
TTITLE10=Carlos Lyra and Quarteto em Cy - Samba do Carioca
TTITLE11=Nana Caymmi - Canção em modo menor
TTITLE12=Cláudia Telles - Dindi
TTITLE13=Tito Madi - Rio
TTITLE14=Pery Ribeiro - Desafinado
TTITLE15=Wanda Sá - Meditação
TTITLE16=Silvio César - Preciso aprender a ser só
TTITLE17=Luís Carlos Vinhas - Você e eu
EXTD=YEAR: 2005
EXTT0=
EXTT1=
EXTT2=
EXTT3=
EXTT4=
EXTT5=
EXTT6=
EXTT7=
EXTT8=
EXTT9=
EXTT10=
EXTT11=
EXTT12=
EXTT13=
EXTT14=
EXTT15=
EXTT16=
EXTT17=
PLAYORDER=
